{
  "accessors": [
    {
      "bufferView": 2,
      "componentType": 5126,
      "count": 913,
      "max": [
        0.13003845512866974,
        3.1010656356811523,
        3.1054933071136475
      ],
      "min": [
        -0.13261659443378448,
        -3.1010656356811523,
        -3.1054933071136475
      ],
      "type": "VEC3"
    },
    {
      "bufferView": 2,
      "byteOffset": 10956,
      "componentType": 5126,
      "count": 913,
      "max": [
        1.0,
        0.9998055696487427,
        0.9999187588691711
      ],
      "min": [
        -1.0,
        -0.9997210502624512,
        -0.9999568462371826
      ],
      "type": "VEC3"
    },
    {
      "bufferView": 1,
      "componentType": 5126,
      "count": 913,
      "max": [
        1.0,
        38.10334777832031
      ],
      "min": [
        0.0,
        0.2518211901187897
      ],
      "type": "VEC2"
    },
    {
      "bufferView": 0,
      "componentType": 5125,
      "count": 4152,
      "type": "SCALAR"
    },
    {
      "bufferView": 2,
      "byteOffset": 21912,
      "componentType": 5126,
      "count": 1874,
      "max": [
        0.024976730346679688,
        2.1624178886413574,
        1.5118227005004883
      ],
      "min": [
        -0.02497674524784088,
        -1.488614559173584,
        -1.021690011024475
      ],
      "type": "VEC3"
    },
    {
      "bufferView": 2,
      "byteOffset": 44400,
      "componentType": 5126,
      "count": 1874,
      "max": [
        0.8661192059516907,
        0.9999301433563232,
        0.9999988675117493
      ],
      "min": [
        -0.8661187887191772,
        -0.9999758005142212,
        -0.999973714351654
      ],
      "type": "VEC3"
    },
    {
      "bufferView": 1,
      "byteOffset": 7304,
      "componentType": 5126,
      "count": 1874,
      "max": [
        0.65625,
        0.9790664911270142
      ],
      "min": [
        0.34375,
        0.7084335088729858
      ],
      "type": "VEC2"
    },
    {
      "bufferView": 0,
      "byteOffset": 16608,
      "componentType": 5125,
      "count": 5424,
      "type": "SCALAR"
    },
    {
      "bufferView": 2,
      "byteOffset": 66888,
      "componentType": 5126,
      "count": 1954,
      "max": [
        0.025412244722247124,
        0.4023454189300537,
        4.073764801025391
      ],
      "min": [
        -0.024124443531036377,
        -1.0283191204071045,
        -0.06300914287567139
      ],
      "type": "VEC3"
    },
    {
      "bufferView": 2,
      "byteOffset": 90336,
      "componentType": 5126,
      "count": 1954,
      "max": [
        0.8711985945701599,
        0.9999868273735046,
        0.9999495148658752
      ],
      "min": [
        -0.868913471698761,
        -0.999984860420227,
        -0.9989117980003357
      ],
      "type": "VEC3"
    },
    {
      "bufferView": 1,
      "byteOffset": 22296,
      "componentType": 5126,
      "count": 1954,
      "max": [
        0.65625,
        0.9790664911270142
      ],
      "min": [
        0.34375,
        0.7084335088729858
      ],
      "type": "VEC2"
    },
    {
      "bufferView": 0,
      "byteOffset": 38304,
      "componentType": 5125,
      "count": 5424,
      "type": "SCALAR"
    },
    {
      "bufferView": 3,
      "componentType": 5126,
      "count": 59,
      "max": [
        2.0
      ],
      "min": [
        0.0833333358168602
      ],
      "type": "SCALAR"
    },
    {
      "bufferView": 4,
      "componentType": 5126,
      "count": 59,
      "max": [
        6.123234262925839e-17,
        1.0,
        6.123234262925839e-17,
        1.0
      ],
      "min": [
        0.0,
        0.0,
        0.0,
        6.123234262925839e-17
      ],
      "type": "VEC4"
    }
  ],
  "animations": [
    {
      "channels": [
        {
          "sampler": 0,
          "target": {
            "node": 4,
            "path": "rotation"
          }
        }
      ],
      "name": "Take 001",
      "samplers": [
        {
          "input": 12,
          "interpolation": "LINEAR",
          "output": 13
        }
      ]
    }
  ],
  "asset": {
    "extras": {
      "author": "daniel luengas (https://sketchfab.com/est.daniel.luengas)",
      "license": "CC-BY-4.0 (http://creativecommons.org/licenses/by/4.0/)",
      "source": "https://sketchfab.com/3d-models/streamline-animacion-cc30304f6f5645cea2700ba3f0fd7509",
      "title": "StreamLine_animacion"
    },
    "generator": "Sketchfab-16.12.0",
    "version": "2.0"
  },
  "bufferViews": [
    {
      "buffer": 0,
      "byteLength": 60000,
      "name": "floatBufferViews",
      "target": 34963
    },
    {
      "buffer": 0,
      "byteLength": 37928,
      "byteOffset": 60000,
      "byteStride": 8,
      "name": "floatBufferViews",
      "target": 34962
    },
    {
      "buffer": 0,
      "byteLength": 113784,
      "byteOffset": 97928,
      "byteStride": 12,
      "name": "floatBufferViews",
      "target": 34962
    },
    {
      "buffer": 0,
      "byteLength": 236,
      "byteOffset": 211712,
      "name": "floatBufferViews"
    },
    {
      "buffer": 0,
      "byteLength": 944,
      "byteOffset": 211948,
      "byteStride": 16,
      "name": "floatBufferViews"
    }
  ],
  "buffers": [
    {
      "byteLength": 212892,
      "uri": "scene.bin"
    }
  ],
  "materials": [
    {
      "doubleSided": true,
      "name": "standardSurface4",
      "pbrMetallicRoughness": {
        "baseColorFactor": [
          0.6128662499164927,
          0.1544820089797144,
          0.007920686071042014,
          1.0
        ],
        "metallicFactor": 0.0,
        "roughnessFactor": 0.6
      }
    },
    {
      "doubleSided": true,
      "name": "lambert1",
      "pbrMetallicRoughness": {
        "metallicFactor": 0.0,
        "roughnessFactor": 0.6
      }
    },
    {
      "doubleSided": true,
      "name": "standardSurface5",
      "pbrMetallicRoughness": {
        "baseColorFactor": [
          0.0,
          0.0,
          0.0,
          1.0
        ],
        "metallicFactor": 0.0,
        "roughnessFactor": 0.6
      }
    }
  ],
  "meshes": [
    {
      "name": "defaultBrush2Main_standardSurface4_0",
      "primitives": [
        {
          "attributes": {
            "NORMAL": 1,
            "POSITION": 0,
            "TEXCOORD_0": 2
          },
          "indices": 3,
          "material": 0,
          "mode": 4
        }
      ]
    },
    {
      "name": "pCylinder2_lambert1_0",
      "primitives": [
        {
          "attributes": {
            "NORMAL": 5,
            "POSITION": 4,
            "TEXCOORD_0": 6
          },
          "indices": 7,
          "material": 1,
          "mode": 4
        }
      ]
    },
    {
      "name": "pCylinder1_standardSurface5_0",
      "primitives": [
        {
          "attributes": {
            "NORMAL": 9,
            "POSITION": 8,
            "TEXCOORD_0": 10
          },
          "indices": 11,
          "material": 2,
          "mode": 4
        }
      ]
    }
  ],
  "nodes": [
    {
      "children": [
        1
      ],
      "matrix": [
        1.0,
        0.0,
        0.0,
        0.0,
        0.0,
        2.220446049250313e-16,
        -1.0,
        0.0,
        0.0,
        1.0,
        2.220446049250313e-16,
        0.0,
        0.0,
        0.0,
        0.0,
        1.0
      ],
      "name": "Sketchfab_model"
    },
    {
      "children": [
        2
      ],
      "matrix": [
        0.009999999776482582,
        0.0,
        0.0,
        0.0,
        0.0,
        0.0,
        0.009999999776482582,
        0.0,
        0.0,
        -0.009999999776482582,
        0.0,
        0.0,
        0.0,
        0.0,
        0.0,
        1.0
      ],
      "name": "20ebff5d8ba24edab34b60a03d87a972.fbx"
    },
    {
      "children": [
        3
      ],
      "name": "Object_2"
    },
    {
      "children": [
        4,
        11
      ],
      "name": "RootNode"
    },
    {
      "children": [
        5,
        7,
        9
      ],
      "name": "group1",
      "rotation": [
        6.123234262925839e-17,
        1.0,
        6.123234262925839e-17,
        6.123234262925839e-17
      ],
      "translation": [
        0.004272237420082092,
        5.2119879722595215,
        -0.012645721435546875
      ]
    },
    {
      "children": [
        6
      ],
      "name": "defaultBrush2Main",
      "rotation": [
        -0.0,
        0.0,
        -0.0,
        1.0
      ],
      "translation": [
        0.0012890733778476715,
        2.110922336578369,
        0.0
      ]
    },
    {
      "mesh": 0,
      "name": "defaultBrush2Main_standardSurface4_0"
    },
    {
      "children": [
        8
      ],
      "name": "pCylinder2",
      "rotation": [
        -0.0,
        0.0,
        -0.0,
        1.0
      ],
      "translation": [
        -0.004272237420082092,
        0.8472421169281006,
        0.012645721435546875
      ]
    },
    {
      "mesh": 1,
      "name": "pCylinder2_lambert1_0"
    },
    {
      "children": [
        10
      ],
      "name": "pCylinder1",
      "rotation": [
        -0.0,
        0.0,
        -0.0,
        1.0
      ],
      "translation": [
        -0.0055601149797439575,
        3.220229148864746,
        -2.56793212890625
      ]
    },
    {
      "mesh": 2,
      "name": "pCylinder1_standardSurface5_0"
    },
    {
      "name": "imagePlane2",
      "rotation": [
        -0.0,
        0.7071068286895752,
        0.0,
        0.7071068286895752
      ],
      "translation": [
        0.0,
        1.7875324487686157,
        0.0
      ]
    }
  ],
  "scene": 0,
  "scenes": [
    {
      "name": "Sketchfab_Scene",
      "nodes": [
        0
      ]
    }
  ]
}
